# xmcd CD database file
#
# Track frame offsets:
#	150
#	19328
#	30846
#	42084
#	54497
#
# Disc length: 901 seconds
#
# Revision: 0
# Processed by: cddbd v1.5.2PL0 Copyright (c) Steve Scherf et al.
# Submitted via: CDex 1.70beta2
#
DISCID=31038305
DTITLE=Harry Boyd - N/A
DYEAR=2006
DGENRE=Country
TTITLE0=Doodle Bugging Boogie
TTITLE1=Mama Don't Let Your Babies Be Doodle Buggers
TTITLE2=I'm Counting On You
TTITLE3=Haunted House
TTITLE4=Chicken Truck
EXTD=YEAR: 2006
EXTT0=
EXTT1=
EXTT2=
EXTT3=
EXTT4=
PLAYORDER=
